# xmcd
#
# Track frame offsets:
#       150
#       15002
#       30612
#       45572
#       58630
#       75835
#       88845
#       104415
#       117925
#       136652
#       150830
#       161782
#       172612
#       185975
#
# Disc length: 2702 seconds
#
# Revision: 1
# Processed by: cddbd v1.5.1PL0 Copyright (c) Steve Scherf et al.
# Submitted via: MusiCat 1.1
#
DISCID=980a8c0e
DTITLE=Orquestra Brasileira de Espetáculos - Brilhantes
DYEAR=1900
DGENRE=
TTITLE0=Detalhes
TTITLE1=Quando
TTITLE2=Sentado a Beira do Caminho
TTITLE3=Quero Que Vá Tudo Para o Inferno
TTITLE4=Alem do Horizonte
TTITLE5=A Distância...
TTITLE6=Amada, Amante
TTITLE7=A Montanha 
TTITLE8=O homem
TTITLE9=Como É Grande O Meu Amor Por Você
TTITLE10=Se Voce Pensa
TTITLE11=O Portão
TTITLE12=Debaixo dos Caracóis dos Seus Cabelos
TTITLE13=O Show Já Terminou
EXTD=\n\n
EXTT0=
EXTT1=
EXTT2=
EXTT3=
EXTT4=
EXTT5=
EXTT6=
EXTT7=
EXTT8=
EXTT9=
EXTT10=
EXTT11=
EXTT12=
EXTT13=
PLAYORDER=
